<mxfile host="app.diagrams.net" modified="2023-11-10T06:44:59.846Z" agent="Mozilla/5.0 (Macintosh; Intel Mac OS X 10_15_7) AppleWebKit/537.36 (KHTML, like Gecko) Chrome/119.0.0.0 Safari/537.36" etag="0OpWOa-keedAwJYbSeOp" version="22.1.0" type="github">
  <diagram name="第 1 页" id="SbZrTEjl_0MuJqhwucL7">
    <mxGraphModel dx="984" dy="569" grid="1" gridSize="10" guides="1" tooltips="1" connect="1" arrows="1" fold="1" page="1" pageScale="1" pageWidth="827" pageHeight="1169" math="0" shadow="0">
      <root>
        <mxCell id="0" />
        <mxCell id="1" parent="0" />
        <mxCell id="jxH17CvIlcSkyn5fjWRM-1" value="中医古籍 图谱可视化&lt;br style=&quot;font-size: 14px;&quot;&gt;问答系统" style="rounded=1;whiteSpace=wrap;html=1;fillColor=#d5e8d4;strokeColor=#82b366;fontSize=14;" vertex="1" parent="1">
          <mxGeometry x="80" y="200" width="160" height="50" as="geometry" />
        </mxCell>
      </root>
    </mxGraphModel>
  </diagram>
</mxfile>
